<svg width="58" height="58" viewBox="0 0 58 58" fill="none" xmlns="http://www.w3.org/2000/svg">
<path d="M29.2474 9.65166V50.2267C29.2409 51.491 28.7357 52.7018 27.8416 53.5958C26.9475 54.4899 25.7368 54.9951 24.4724 55.0017C23.2101 54.9886 22.0031 54.4814 21.1104 53.5887C20.2177 52.696 19.7104 51.489 19.6974 50.2267C19.2984 50.2659 18.8965 50.2659 18.4974 50.2267C16.2849 50.2201 14.1649 49.3382 12.6004 47.7737C11.0359 46.2092 10.154 44.0892 10.1474 41.8767C10.1493 41.2877 10.2164 40.7008 10.3474 40.1267C8.39568 39.479 6.67126 38.284 5.37963 36.6839C4.08799 35.0838 3.2836 33.146 3.06229 31.1016C2.84099 29.0572 3.2121 26.9922 4.13141 25.1527C5.05072 23.3133 6.47947 21.7769 8.24743 20.7267C7.93403 19.8523 7.77335 18.9305 7.77243 18.0017C7.77563 15.9973 8.4997 14.061 9.81242 12.5463C11.1251 11.0316 12.9389 10.0397 14.9224 9.75166C15.0304 7.9252 15.832 6.20899 17.1634 4.95398C18.4948 3.69897 20.2553 3 22.0849 3C23.9146 3 25.6751 3.69897 27.0065 4.95398C28.3378 6.20899 29.1395 7.9252 29.2474 9.75166V9.65166Z" stroke="#FCFBFB" stroke-width="4.775" stroke-miterlimit="10"/>
<path d="M16.1207 26.3766C13.9819 26.2596 11.9692 25.3276 10.4965 23.7721C9.02385 22.2167 8.20313 20.1561 8.20312 18.0141C8.20313 15.8721 9.02385 13.8115 10.4965 12.2561C11.9692 10.7006 13.9819 9.7686 16.1207 9.65161" stroke="#FCFBFB" stroke-width="4.775" stroke-miterlimit="10"/>
<path d="M19.6953 33.5266C20.9494 33.5266 22.1913 33.7736 23.3499 34.2536C24.5086 34.7335 25.5614 35.4369 26.4482 36.3237C27.335 37.2105 28.0384 38.2633 28.5184 39.422C28.9983 40.5806 29.2453 41.8225 29.2453 43.0766" stroke="#FCFBFB" stroke-width="4.775" stroke-miterlimit="10"/>
<path d="M22.0938 16.8266C23.0348 16.8266 23.9666 16.6409 24.8357 16.28C25.7048 15.9191 26.4942 15.3902 27.1584 14.7236C27.8227 14.057 28.3488 13.2658 28.7067 12.3955C29.0645 11.5251 29.247 10.5927 29.2437 9.65161" stroke="#FCFBFB" stroke-width="4.775" stroke-miterlimit="10"/>
<path d="M29.25 9.65166V50.2267C29.2566 51.491 29.7618 52.7018 30.6558 53.5958C31.5499 54.4899 32.7606 54.9951 34.025 55.0017C35.2874 54.9886 36.4944 54.4814 37.387 53.5887C38.2797 52.696 38.787 51.489 38.8 50.2267C39.199 50.2659 39.601 50.2659 40 50.2267C42.2125 50.2201 44.3326 49.3382 45.8971 47.7737C47.4616 46.2092 48.3434 44.0892 48.35 41.8767C48.3482 41.2877 48.2811 40.7008 48.15 40.1267C50.1017 39.479 51.8262 38.284 53.1178 36.6839C54.4094 35.0838 55.2138 33.146 55.4351 31.1016C55.6564 29.0572 55.2853 26.9922 54.366 25.1527C53.4467 23.3133 52.018 21.7769 50.25 20.7267C50.5634 19.8523 50.7241 18.9305 50.725 18.0017C50.7218 15.9973 49.9977 14.061 48.685 12.5463C47.3723 11.0316 45.5585 10.0397 43.575 9.75166C43.467 7.9252 42.6654 6.20899 41.334 4.95398C40.0027 3.69897 38.2421 3 36.4125 3C34.5829 3 32.8223 3.69897 31.491 4.95398C30.1596 6.20899 29.358 7.9252 29.25 9.75166V9.65166Z" stroke="#FCFBFB" stroke-width="4.775" stroke-miterlimit="10"/>
<path d="M42.375 26.3766C44.5138 26.2596 46.5265 25.3276 47.9992 23.7721C49.4719 22.2167 50.2926 20.1561 50.2926 18.0141C50.2926 15.8721 49.4719 13.8115 47.9992 12.2561C46.5265 10.7006 44.5138 9.7686 42.375 9.65161" stroke="#FCFBFB" stroke-width="4.775" stroke-miterlimit="10"/>
<path d="M38.8 33.5266C36.2672 33.5266 33.8381 34.5328 32.0471 36.3237C30.2562 38.1147 29.25 40.5438 29.25 43.0766" stroke="#FCFBFB" stroke-width="4.775" stroke-miterlimit="10"/>
<path d="M36.4 16.8266C35.459 16.8266 34.5272 16.6409 33.6581 16.28C32.789 15.9191 31.9996 15.3902 31.3354 14.7236C30.6711 14.057 30.145 13.2658 29.7871 12.3955C29.4293 11.5251 29.2468 10.5927 29.25 9.65161" stroke="#FCFBFB" stroke-width="4.775" stroke-miterlimit="10"/>
</svg>
